<svg xmlns="http://www.w3.org/2000/svg" width="960" height="720" viewBox="0 0 960 720" role="img" aria-labelledby="title desc">
<title id="title">Acoustic guitar</title><desc id="desc">Original abstract product illustration for the BitGora portfolio demonstration.</desc>
<defs>
  <linearGradient id="bg" x1="0" y1="0" x2="1" y2="1"><stop stop-color="#3c2b0d"/><stop offset="1" stop-color="#d69e2e" stop-opacity=".72"/></linearGradient>
  <filter id="shadow" x="-20%" y="-20%" width="140%" height="140%"><feDropShadow dx="0" dy="18" stdDeviation="20" flood-color="#000" flood-opacity=".28"/></filter>
</defs>
<rect width="960" height="720" fill="url(#bg)"/>
<circle cx="790" cy="120" r="130" fill="#06aed5" opacity=".18"/>
<circle cx="150" cy="630" r="180" fill="#fff" opacity=".055"/>
<path d="M80 116h220" stroke="#fff" stroke-opacity=".18" stroke-width="2"/>
<text x="80" y="90" fill="#fff" opacity=".75" font-family="system-ui,sans-serif" font-size="22" font-weight="700" letter-spacing="4">BITGORA MARKET LAB</text>
<g filter="url(#shadow)"><g transform="translate(360 90) rotate(8 120 280)">
<path d="M120 0h38v245c80 10 120 75 95 145-15 45-55 80-115 80S40 435 25 390c-25-70 15-135 95-145z" fill="#d69e2e" stroke="#fff" stroke-width="10"/>
<circle cx="140" cy="330" r="45" fill="#3c2b0d"/>
<path d="M125 0v470M140 0v470M155 0v470" stroke="#f7fbfd" stroke-width="3"/>
<rect x="100" y="0" width="78" height="45" rx="10" fill="#8b5b13"/>
</g></g>
<rect x="80" y="600" width="800" height="2" fill="#fff" opacity=".15"/>
<text x="80" y="648" fill="#fff" font-family="system-ui,sans-serif" font-size="34" font-weight="800">Acoustic guitar</text>
<text x="80" y="680" fill="#fff" opacity=".72" font-family="system-ui,sans-serif" font-size="19">FICTIONAL DEMO LISTING · NO REAL GOODS OFFERED</text>
</svg>