<svg xmlns="http://www.w3.org/2000/svg" width="960" height="720" viewBox="0 0 960 720" role="img" aria-labelledby="title desc">
<title id="title">Studio headphones</title><desc id="desc">Original abstract product illustration for the BitGora portfolio demonstration.</desc>
<defs>
  <linearGradient id="bg" x1="0" y1="0" x2="1" y2="1"><stop stop-color="#3a2413"/><stop offset="1" stop-color="#f28c28" stop-opacity=".72"/></linearGradient>
  <filter id="shadow" x="-20%" y="-20%" width="140%" height="140%"><feDropShadow dx="0" dy="18" stdDeviation="20" flood-color="#000" flood-opacity=".28"/></filter>
</defs>
<rect width="960" height="720" fill="url(#bg)"/>
<circle cx="790" cy="120" r="130" fill="#06aed5" opacity=".18"/>
<circle cx="150" cy="630" r="180" fill="#fff" opacity=".055"/>
<path d="M80 116h220" stroke="#fff" stroke-opacity=".18" stroke-width="2"/>
<text x="80" y="90" fill="#fff" opacity=".75" font-family="system-ui,sans-serif" font-size="22" font-weight="700" letter-spacing="4">BITGORA MARKET LAB</text>
<g filter="url(#shadow)"><g transform="translate(260 170)">
<path d="M80 280V190C80 70 165 0 220 0s140 70 140 190v90" fill="none" stroke="#f7fbfd" stroke-width="42" stroke-linecap="round"/>
<rect x="15" y="225" width="125" height="200" rx="48" fill="#f28c28" stroke="#fff" stroke-width="8"/>
<rect x="300" y="225" width="125" height="200" rx="48" fill="#f28c28" stroke="#fff" stroke-width="8"/>
<rect x="45" y="255" width="65" height="140" rx="30" fill="#102a38"/><rect x="330" y="255" width="65" height="140" rx="30" fill="#102a38"/>
</g></g>
<rect x="80" y="600" width="800" height="2" fill="#fff" opacity=".15"/>
<text x="80" y="648" fill="#fff" font-family="system-ui,sans-serif" font-size="34" font-weight="800">Studio headphones</text>
<text x="80" y="680" fill="#fff" opacity=".72" font-family="system-ui,sans-serif" font-size="19">FICTIONAL DEMO LISTING · NO REAL GOODS OFFERED</text>
</svg>